/* XPM */
static char *TorrentBuild_CPPDlg_XPM[]={
/* TorrentBuild_CPPDlg */
"32 32 103 2",
"      c None",
" 0    c #9BDC9E",
" 1    c #85F689",
" 2    c #7CFD81",
" 3    c #6DFF72",
" 4    c #5DFF63",
" 5    c #4DFE53",
" 6    c #33FF3A",
" 7    c #25FF2D",
" 8    c #13FF1B",
" 9    c #08FA0F",
" a    c #32E538",
" b    c #89CF8B",
" c    c #FFFFFF",
" d    c #8EEA91",
" e    c #99FF9D",
" f    c #87FE8B",
" g    c #75FF7A",
" h    c #61FF67",
" i    c #3DFF44",
" j    c #2BFB32",
" k    c #03FB0B",
" l    c #05F70D",
" m    c #5DDD61",
" n    c #9FFFA2",
" o    c #89FE8D",
" p    c #79FF7E",
" q    c #67FF6C",
" r    c #53FF59",
" s    c #45FE4B",
" t    c #1DFF25",
" u    c #09FE11",
" v    c #84D187",
" w    c #8DF591",
" x    c #91FF95",
" y    c #59FF5F",
" z    c #33E839",
" A    c #8EFE92",
" B    c #83FE87",
" C    c #5AD55F",
" D    c #42C546",
" E    c #38BF3C",
" F    c #2CCC31",
" G    c #05EB0D",
" H    c #00D407",
" I    c #00D907",
" J    c #07D50D",
" K    c #08D30F",
" L    c #0EDC15",
" M    c #11EB18",
" N    c #000005",
" O    c #010E01",
" P    c #09C30F",
" Q    c #007804",
" R    c #033304",
" S    c #0CEB14",
" T    c #0E340F",
" U    c #139717",
" V    c #005902",
" W    c #00CA06",
" X    c #019E06",
" Y    c #037306",
" Z    c #024805",
" &    c #09970D",
"0     c #0AAD0F",
"00    c #0FE416",
"01    c #08280A",
"02    c #1BB420",
"03    c #075B09",
"04    c #06B60C",
"05    c #057109",
"06    c #001800",
"07    c #51FF57",
"08    c #063808",
"09    c #00AE05",
"0a    c #002C01",
"0b    c #08B20E",
"0c    c #066C0A",
"0d    c #0CD413",
"0e    c #00E507",
"0f    c #00A505",
"0g    c #0BCD12",
"0h    c #38FC3F",
"0i    c #001200",
"0j    c #05BB0B",
"0k    c #10C816",
"0l    c #46F04C",
"0m    c #07C40D",
"0n    c #00B506",
"0o    c #00B906",
"0p    c #03CC0A",
"0q    c #0AA70F",
"0r    c #0CBD12",
"0s    c #2EC332",
"0t    c #88D48A",
"0u    c #08F310",
"0v    c #7DC17F",
"0w    c #0AC610",
"0x    c #55C259",
"0y    c #30EB36",
"0z    c #11D018",
"0A    c #30C835",
"0B    c #81C383",
"     0 1 2 3 4 5 6 7 8 9 a b     c c c c c c c c c c c c c c c c",
"   d e f g h 5 i j 8 k l k k m   c c c c c c c c c c c c c c c c",
" 0 n o p q r s j t u l l k k k v c c c c c c c c c c c c c c c c",
" w x 2 3 y s 6 7 u k l k k k k z c c c c c c c c c c c c c c c c",
" A B C D E F 7 8 G H I J J K L M c c c c c c c c c c c c c c c c",
" o g N N N N O P Q N N N N N R S c c c c c c c c c c c c c c c c",
" 2 q N T j U N V W X Y N Z &0 00 c c c c c c c c c c c c c c c c",
" 3 4 N010203 N X k k04 N05 S00 L c c c c c c c c c c c c c c c c",
" 4 5 N N N N06 W k k04 N050000 L c c c c c c c c c c c c c c c c",
"07 i N08 k09 N0a k k0b N0c00 L0d c c c c c c c c c c c c c c c c",
" s 6 N R0e0f N0a k k0b N0c L0d0g c c c c c c c c c c c c c c c c",
"0h 7 N N N N0i0j k l0  N0c L0d0k c c c c c c c c c c c c c c c c",
"0l 80m0n0o0p k k k S L0q0r0d0g0s c c c c c c c c c c c c c c c c",
"0t u l l k k k l0u S00 L0d0g P0v c c c c c c c c c c c c c c c c",
"   m l k k k k l S00 L0d0g0w0x   c c c c c c c c c c c c c c c c",
"     b0y 9 k l S00 L L0z0A0B     c c c c c c c c c c c c c c c c",
" c c c c c c c c c c c c c c c c c c c c c c c c c c c c c c c c",
" c c c c c c c c c c c c c c c c c c c c c c c c c c c c c c c c",
" c c c c c c c c c c c c c c c c c c c c c c c c c c c c c c c c",
" c c c c c c c c c c c c c c c c c c c c c c c c c c c c c c c c",
" c c c c c c c c c c c c c c c c c c c c c c c c c c c c c c c c",
" c c c c c c c c c c c c c c c c c c c c c c c c c c c c c c c c",
" c c c c c c c c c c c c c c c c c c c c c c c c c c c c c c c c",
" c c c c c c c c c c c c c c c c c c c c c c c c c c c c c c c c",
" c c c c c c c c c c c c c c c c c c c c c c c c c c c c c c c c",
" c c c c c c c c c c c c c c c c c c c c c c c c c c c c c c c c",
" c c c c c c c c c c c c c c c c c c c c c c c c c c c c c c c c",
" c c c c c c c c c c c c c c c c c c c c c c c c c c c c c c c c",
" c c c c c c c c c c c c c c c c c c c c c c c c c c c c c c c c",
" c c c c c c c c c c c c c c c c c c c c c c c c c c c c c c c c",
" c c c c c c c c c c c c c c c c c c c c c c c c c c c c c c c c",
" c c c c c c c c c c c c c c c c c c c c c c c c c c c c c c c c"};

